<?xml version="1.0" encoding="utf-8" standalone="no"?>
<!DOCTYPE svg PUBLIC "-//W3C//DTD SVG 1.1//EN"
  "http://www.w3.org/Graphics/SVG/1.1/DTD/svg11.dtd">
<svg xmlns:xlink="http://www.w3.org/1999/xlink" width="1086.588563pt" height="624.24pt" viewBox="0 0 1086.588563 624.24" xmlns="http://www.w3.org/2000/svg" version="1.1">
 <metadata>
  <rdf:RDF xmlns:dc="http://purl.org/dc/elements/1.1/" xmlns:cc="http://creativecommons.org/ns#" xmlns:rdf="http://www.w3.org/1999/02/22-rdf-syntax-ns#">
   <cc:Work>
    <dc:type rdf:resource="http://purl.org/dc/dcmitype/StillImage"/>
    <dc:date>2026-06-20T22:36:45.030448</dc:date>
    <dc:format>image/svg+xml</dc:format>
    <dc:creator>
     <cc:Agent>
      <dc:title>Matplotlib v3.10.8, https://matplotlib.org/</dc:title>
     </cc:Agent>
    </dc:creator>
   </cc:Work>
  </rdf:RDF>
 </metadata>
 <defs>
  <style type="text/css">*{stroke-linejoin: round; stroke-linecap: butt}</style>
 </defs>
 <g id="figure_1">
  <g id="patch_1">
   <path d="M 0 624.24 
L 1086.588563 624.24 
L 1086.588563 0 
L 0 0 
z
" style="fill: #ffffff"/>
  </g>
  <g id="axes_1">
   <g id="patch_2">
    <path d="M 40.3452 404.81568 
L 978.4548 404.81568 
Q 993.5208 404.81568 993.5208 395.66808 
L 993.5208 137.09592 
Q 993.5208 127.94832 978.4548 127.94832 
L 40.3452 127.94832 
Q 25.2792 127.94832 25.2792 137.09592 
L 25.2792 395.66808 
Q 25.2792 404.81568 40.3452 404.81568 
z
" clip-path="url(#p5157d31869)" style="fill: #e0e0e0; opacity: 0.15; stroke: #455a64; stroke-width: 1.2; stroke-linejoin: miter"/>
   </g>
   <g id="text_1">
    <text style="font-weight: 700; font-size: 10px; font-family: 'DejaVu Sans', 'Bitstream Vera Sans', 'Computer Modern Sans Serif', 'Lucida Grande', 'Verdana', 'Geneva', 'Lucid', 'Arial', 'Helvetica', 'Avant Garde', sans-serif; text-anchor: start" x="49.3848" y="153.841957" transform="rotate(-0 49.3848 153.841957)">Edge Gateway Platform</text>
   </g>
   <g id="patch_3">
    <path d="M 40.3452 124.28928 
L 978.4548 124.28928 
Q 993.5208 124.28928 993.5208 115.14168 
L 993.5208 51.71832 
Q 993.5208 42.57072 978.4548 42.57072 
L 40.3452 42.57072 
Q 25.2792 42.57072 25.2792 51.71832 
L 25.2792 115.14168 
Q 25.2792 124.28928 40.3452 124.28928 
z
" clip-path="url(#p5157d31869)" style="fill: #ffe0b2; opacity: 0.35; stroke: #455a64; stroke-width: 1.2; stroke-linejoin: miter"/>
   </g>
   <g id="patch_4">
    <path d="M 40.3452 203.56848 
L 978.4548 203.56848 
Q 993.5208 203.56848 993.5208 194.42088 
L 993.5208 137.09592 
Q 993.5208 127.94832 978.4548 127.94832 
L 40.3452 127.94832 
Q 25.2792 127.94832 25.2792 137.09592 
L 25.2792 194.42088 
Q 25.2792 203.56848 40.3452 203.56848 
z
" clip-path="url(#p5157d31869)" style="fill: #c8e6c9; opacity: 0.35; stroke: #455a64; stroke-width: 1.2; stroke-linejoin: miter"/>
   </g>
   <g id="patch_5">
    <path d="M 40.3452 276.74928 
L 978.4548 276.74928 
Q 993.5208 276.74928 993.5208 267.60168 
L 993.5208 210.27672 
Q 993.5208 201.12912 978.4548 201.12912 
L 40.3452 201.12912 
Q 25.2792 201.12912 25.2792 210.27672 
L 25.2792 267.60168 
Q 25.2792 276.74928 40.3452 276.74928 
z
" clip-path="url(#p5157d31869)" style="fill: #eceff1; opacity: 0.35; stroke: #455a64; stroke-width: 1.2; stroke-linejoin: miter"/>
   </g>
   <g id="patch_6">
    <path d="M 40.3452 374.32368 
L 476.2548 374.32368 
Q 491.3208 374.32368 491.3208 365.17608 
L 491.3208 289.55592 
Q 491.3208 280.40832 476.2548 280.40832 
L 40.3452 280.40832 
Q 25.2792 280.40832 25.2792 289.55592 
L 25.2792 365.17608 
Q 25.2792 374.32368 40.3452 374.32368 
z
" clip-path="url(#p5157d31869)" style="fill: #ffcdd2; opacity: 0.35; stroke: #455a64; stroke-width: 1.2; stroke-linejoin: miter"/>
   </g>
   <g id="patch_7">
    <path d="M 512.4132 404.81568 
L 978.4548 404.81568 
Q 993.5208 404.81568 993.5208 395.66808 
L 993.5208 289.55592 
Q 993.5208 280.40832 978.4548 280.40832 
L 512.4132 280.40832 
Q 497.3472 280.40832 497.3472 289.55592 
L 497.3472 395.66808 
Q 497.3472 404.81568 512.4132 404.81568 
z
" clip-path="url(#p5157d31869)" style="fill: #bbdefb; opacity: 0.35; stroke: #455a64; stroke-width: 1.2; stroke-linejoin: miter"/>
   </g>
   <g id="patch_8">
    <path d="M 40.3452 526.78368 
L 978.4548 526.78368 
Q 993.5208 526.78368 993.5208 517.63608 
L 993.5208 448.11432 
Q 993.5208 438.96672 978.4548 438.96672 
L 40.3452 438.96672 
Q 25.2792 438.96672 25.2792 448.11432 
L 25.2792 517.63608 
Q 25.2792 526.78368 40.3452 526.78368 
z
" clip-path="url(#p5157d31869)" style="fill: #b3e5fc; opacity: 0.35; stroke: #455a64; stroke-width: 1.2; stroke-linejoin: miter"/>
   </g>
   <g id="text_2">
    <text style="font-weight: 700; font-size: 10px; font-family: 'DejaVu Sans', 'Bitstream Vera Sans', 'Computer Modern Sans Serif', 'Lucida Grande', 'Verdana', 'Geneva', 'Lucid', 'Arial', 'Helvetica', 'Avant Garde', sans-serif; text-anchor: start" x="49.3848" y="68.464358" transform="rotate(-0 49.3848 68.464358)">Development &amp; Training (offline)</text>
   </g>
   <g id="text_3">
    <text style="font-weight: 700; font-size: 10px; font-family: 'DejaVu Sans', 'Bitstream Vera Sans', 'Computer Modern Sans Serif', 'Lucida Grande', 'Verdana', 'Geneva', 'Lucid', 'Arial', 'Helvetica', 'Avant Garde', sans-serif; text-anchor: start" x="49.3848" y="153.763832" transform="rotate(-0 49.3848 153.763832)">IoT Layer</text>
   </g>
   <g id="text_4">
    <text style="font-weight: 700; font-size: 10px; font-family: 'DejaVu Sans', 'Bitstream Vera Sans', 'Computer Modern Sans Serif', 'Lucida Grande', 'Verdana', 'Geneva', 'Lucid', 'Arial', 'Helvetica', 'Avant Garde', sans-serif; text-anchor: start" x="49.3848" y="227.022758" transform="rotate(-0 49.3848 227.022758)">Edge Data Path</text>
   </g>
   <g id="text_5">
    <text style="font-weight: 700; font-size: 10px; font-family: 'DejaVu Sans', 'Bitstream Vera Sans', 'Computer Modern Sans Serif', 'Lucida Grande', 'Verdana', 'Geneva', 'Lucid', 'Arial', 'Helvetica', 'Avant Garde', sans-serif; text-anchor: start" x="49.3848" y="306.301957" transform="rotate(-0 49.3848 306.301957)">REE — Linux OS (untrusted)</text>
   </g>
   <g id="text_6">
    <text style="font-weight: 700; font-size: 10px; font-family: 'DejaVu Sans', 'Bitstream Vera Sans', 'Computer Modern Sans Serif', 'Lucida Grande', 'Verdana', 'Geneva', 'Lucid', 'Arial', 'Helvetica', 'Avant Garde', sans-serif; text-anchor: start" x="521.4528" y="306.301957" transform="rotate(-0 521.4528 306.301957)">TEE — OP-TEE / ARM TrustZone (protected)</text>
   </g>
   <g id="text_7">
    <text style="font-weight: 700; font-size: 10px; font-family: 'DejaVu Sans', 'Bitstream Vera Sans', 'Computer Modern Sans Serif', 'Lucida Grande', 'Verdana', 'Geneva', 'Lucid', 'Arial', 'Helvetica', 'Avant Garde', sans-serif; text-anchor: start" x="49.3848" y="464.860357" transform="rotate(-0 49.3848 464.860357)">Cloud Management &amp; Monitoring</text>
   </g>
   <g id="patch_9">
    <path d="M 160.856525 83.43 
Q 177.946285 83.43 193.358994 83.43 
" style="fill: none; stroke: #37474f; stroke-width: 1.5; stroke-linecap: round"/>
    <path d="M 189.358994 81.43 
L 193.358994 83.43 
L 189.358994 85.43 
z
" style="fill: #37474f; stroke: #37474f; stroke-width: 1.5; stroke-linecap: round"/>
   </g>
   <g id="patch_10">
    <path d="M 160.858671 83.43 
Q 248.256452 83.43 333.977182 83.43 
" style="fill: none; stroke: #37474f; stroke-width: 1.5; stroke-linecap: round"/>
    <path d="M 329.977182 81.43 
L 333.977182 83.43 
L 329.977182 85.43 
z
" style="fill: #37474f; stroke: #37474f; stroke-width: 1.5; stroke-linecap: round"/>
   </g>
   <g id="patch_11">
    <path d="M 442.088525 83.43 
Q 459.178285 83.43 474.590994 83.43 
" style="fill: none; stroke: #37474f; stroke-width: 1.5; stroke-linecap: round"/>
    <path d="M 470.590994 81.43 
L 474.590994 83.43 
L 470.590994 85.43 
z
" style="fill: #37474f; stroke: #37474f; stroke-width: 1.5; stroke-linecap: round"/>
   </g>
   <g id="patch_12">
    <path d="M 301.472525 83.43 
Q 459.179393 83.43 615.209209 83.43 
" style="fill: none; stroke: #37474f; stroke-width: 1.5; stroke-linecap: round"/>
    <path d="M 611.209209 81.43 
L 615.209209 83.43 
L 611.209209 85.43 
z
" style="fill: #37474f; stroke: #37474f; stroke-width: 1.5; stroke-linecap: round"/>
   </g>
   <g id="patch_13">
    <path d="M 582.704525 83.43 
Q 599.794285 83.43 615.206994 83.43 
" style="fill: none; stroke: #37474f; stroke-width: 1.5; stroke-linecap: round"/>
    <path d="M 611.206994 81.43 
L 615.206994 83.43 
L 611.206994 85.43 
z
" style="fill: #37474f; stroke: #37474f; stroke-width: 1.5; stroke-linecap: round"/>
   </g>
   <g id="patch_14">
    <path d="M 723.320525 83.43 
Q 740.410285 83.43 755.822994 83.43 
" style="fill: none; stroke: #37474f; stroke-width: 1.5; stroke-linecap: round"/>
    <path d="M 751.822994 81.43 
L 755.822994 83.43 
L 751.822994 85.43 
z
" style="fill: #37474f; stroke: #37474f; stroke-width: 1.5; stroke-linecap: round"/>
   </g>
   <g id="patch_15">
    <path d="M 130.565136 197.219373 
Q 167.900863 209.970729 203.649546 222.180057 
" style="fill: none; stroke: #37474f; stroke-width: 1.5; stroke-linecap: round"/>
    <path d="M 200.510631 218.994588 
L 203.649546 222.180057 
L 199.217822 222.779908 
z
" style="fill: #37474f; stroke: #37474f; stroke-width: 1.5; stroke-linecap: round"/>
   </g>
   <g id="patch_16">
    <path d="M 305.6234 197.041826 
Q 258.299907 209.971825 212.594168 222.459813 
" style="fill: none; stroke: #37474f; stroke-width: 1.5; stroke-linecap: round"/>
    <path d="M 216.979865 223.334836 
L 212.594168 222.459813 
L 215.925605 219.476269 
z
" style="fill: #37474f; stroke: #37474f; stroke-width: 1.5; stroke-linecap: round"/>
   </g>
   <g id="patch_17">
    <path d="M 486.329574 196.541427 
Q 348.697169 209.971686 212.733886 223.239071 
" style="fill: none; stroke: #37474f; stroke-width: 1.5; stroke-linecap: round"/>
    <path d="M 216.909216 224.841139 
L 212.733886 223.239071 
L 216.520739 220.860048 
z
" style="fill: #37474f; stroke: #37474f; stroke-width: 1.5; stroke-linecap: round"/>
   </g>
   <g id="patch_18">
    <path d="M 707.287613 196.413919 
Q 459.182511 209.971663 212.751962 223.4379 
" style="fill: none; stroke: #37474f; stroke-width: 1.5; stroke-linecap: round"/>
    <path d="M 216.85513 225.216665 
L 212.751962 223.4379 
L 216.636875 221.222624 
z
" style="fill: #37474f; stroke: #37474f; stroke-width: 1.5; stroke-linecap: round"/>
   </g>
   <g id="patch_19">
    <path d="M 211.077751 241.9884 
Q 328.608477 241.9884 444.462153 241.9884 
" style="fill: none; stroke: #37474f; stroke-width: 1.5; stroke-linecap: round"/>
    <path d="M 440.462153 239.9884 
L 444.462153 241.9884 
L 440.462153 243.9884 
z
" style="fill: #37474f; stroke: #37474f; stroke-width: 1.5; stroke-linecap: round"/>
   </g>
   <g id="patch_20">
    <path d="M 452.109077 242.368433 
Q 639.972023 266.382003 826.171453 290.182934 
" style="fill: none; stroke: #37474f; stroke-width: 1.5; stroke-linecap: round"/>
    <path d="M 822.457323 287.691902 
L 826.171453 290.182934 
L 821.950149 291.659619 
z
" style="fill: #37474f; stroke: #37474f; stroke-width: 1.5; stroke-linecap: round"/>
   </g>
   <g id="patch_21">
    <path d="M 472.217154 333.262472 
Q 650.014709 321.267687 826.139017 309.385784 
" style="fill: none; stroke: #1565c0; stroke-width: 1.5; stroke-linecap: round"/>
    <path d="M 822.013469 307.659561 
L 826.139017 309.385784 
L 822.282709 311.650489 
z
" style="fill: #1565c0; stroke: #1565c0; stroke-width: 1.5; stroke-linecap: round"/>
   </g>
   <g id="patch_22">
    <path d="M 592.749751 309.0708 
Q 650.013826 309.0708 705.600849 309.0708 
" style="fill: none; stroke: #1565c0; stroke-width: 1.5; stroke-linecap: round"/>
    <path d="M 701.600849 307.0708 
L 705.600849 309.0708 
L 701.600849 311.0708 
z
" style="fill: #1565c0; stroke: #1565c0; stroke-width: 1.5; stroke-linecap: round"/>
   </g>
   <g id="patch_23">
    <path d="M 713.277751 309.0708 
Q 770.541826 309.0708 826.128849 309.0708 
" style="fill: none; stroke: #1565c0; stroke-width: 1.5; stroke-linecap: round"/>
    <path d="M 822.128849 307.0708 
L 826.128849 309.0708 
L 822.128849 311.0708 
z
" style="fill: #1565c0; stroke: #1565c0; stroke-width: 1.5; stroke-linecap: round"/>
   </g>
   <g id="patch_24">
    <path d="M 833.805751 309.0708 
Q 891.069826 309.0708 946.656849 309.0708 
" style="fill: none; stroke: #1565c0; stroke-width: 1.5; stroke-linecap: round"/>
    <path d="M 942.656849 307.0708 
L 946.656849 309.0708 
L 942.656849 311.0708 
z
" style="fill: #1565c0; stroke: #1565c0; stroke-width: 1.5; stroke-linecap: round"/>
   </g>
   <g id="patch_25">
    <path d="M 948.533194 310.134409 
Q 870.986062 339.562018 795.006879 368.39462 
" style="fill: none; stroke: #1565c0; stroke-width: 1.5; stroke-linecap: round"/>
    <path d="M 799.456245 368.845337 
L 795.006879 368.39462 
L 798.037072 365.105557 
z
" style="fill: #1565c0; stroke: #1565c0; stroke-width: 1.5; stroke-linecap: round"/>
   </g>
   <g id="patch_26">
    <path d="M 708.170539 311.205463 
Q 680.14835 339.562446 653.304952 366.726553 
" style="fill: none; stroke: #1565c0; stroke-width: 1.5; stroke-linecap: round"/>
    <path d="M 657.53912 365.287171 
L 653.304952 366.726553 
L 654.693947 362.47559 
z
" style="fill: #1565c0; stroke: #1565c0; stroke-width: 1.5; stroke-linecap: round"/>
   </g>
   <g id="patch_27">
    <path d="M 932.185947 367.207342 
Q 941.29169 339.563742 949.872747 313.513004 
" style="fill: none; stroke: #1565c0; stroke-width: 1.5; stroke-linecap: round"/>
    <path d="M 946.721703 316.686476 
L 949.872747 313.513004 
L 950.520898 317.937922 
z
" style="fill: #1565c0; stroke: #1565c0; stroke-width: 1.5; stroke-linecap: round"/>
   </g>
   <g id="patch_28">
    <path d="M 787.650571 370.397647 
Q 459.17833 408.169992 132.372161 445.750749 
" style="fill: none; stroke-dasharray: 5.55,2.4; stroke-dashoffset: 0; stroke: #1565c0; stroke-width: 1.5; stroke-linecap: round"/>
    <path d="M 136.574456 447.280691 
L 132.372161 445.750749 
L 136.117491 443.306878 
z
" style="fill: #1565c0; stroke-dasharray: 5.55,2.4; stroke-dashoffset: 0; stroke: #1565c0; stroke-width: 1.5; stroke-linecap: round"/>
   </g>
   <g id="patch_29">
    <path d="M 790.632 373.055798 
Q 790.632 408.170767 790.632 441.608685 
" style="fill: none; stroke: #37474f; stroke-width: 1.5; stroke-linecap: round"/>
    <path d="M 792.632 437.608685 
L 790.632 441.608685 
L 788.632 437.608685 
z
" style="fill: #37474f; stroke: #37474f; stroke-width: 1.5; stroke-linecap: round"/>
   </g>
   <g id="patch_30">
    <path d="M 809.412698 86.128758 
Q 760.500568 187.101627 712.319553 286.565202 
" style="fill: none; stroke-dasharray: 5.55,2.4; stroke-dashoffset: 0; stroke: #e65100; stroke-width: 1.5; stroke-linecap: round"/>
    <path d="M 715.863304 283.83723 
L 712.319553 286.565202 
L 712.263426 282.093418 
z
" style="fill: #e65100; stroke-dasharray: 5.55,2.4; stroke-dashoffset: 0; stroke: #e65100; stroke-width: 1.5; stroke-linecap: round"/>
   </g>
   <g id="patch_31">
    <path d="M 713.167405 242.791923 
Q 830.807122 275.529356 946.831182 307.817174 
" style="fill: none; stroke-dasharray: 5.55,2.4; stroke-dashoffset: 0; stroke: #37474f; stroke-width: 1.5; stroke-linecap: round"/>
    <path d="M 943.513812 304.817999 
L 946.831182 307.817174 
L 942.44142 308.671566 
z
" style="fill: #37474f; stroke-dasharray: 5.55,2.4; stroke-dashoffset: 0; stroke: #37474f; stroke-width: 1.5; stroke-linecap: round"/>
   </g>
   <g id="patch_32">
    <path d="M 44.3628 105.07932 
L 170.9172 105.07932 
Q 180.9612 105.07932 180.9612 98.98092 
L 180.9612 67.87908 
Q 180.9612 61.78068 170.9172 61.78068 
L 44.3628 61.78068 
Q 34.3188 61.78068 34.3188 67.87908 
L 34.3188 98.98092 
Q 34.3188 105.07932 44.3628 105.07932 
z
" clip-path="url(#p5157d31869)" style="fill: #ffe0b2; opacity: 0.9; stroke: #455a64; stroke-width: 0.8; stroke-linejoin: miter"/>
   </g>
   <g id="patch_33">
    <path d="M 184.9788 105.07932 
L 311.5332 105.07932 
Q 321.5772 105.07932 321.5772 98.98092 
L 321.5772 67.87908 
Q 321.5772 61.78068 311.5332 61.78068 
L 184.9788 61.78068 
Q 174.9348 61.78068 174.9348 67.87908 
L 174.9348 98.98092 
Q 174.9348 105.07932 184.9788 105.07932 
z
" clip-path="url(#p5157d31869)" style="fill: #ffe0b2; opacity: 0.9; stroke: #455a64; stroke-width: 0.8; stroke-linejoin: miter"/>
   </g>
   <g id="patch_34">
    <path d="M 325.5948 105.07932 
L 452.1492 105.07932 
Q 462.1932 105.07932 462.1932 98.98092 
L 462.1932 67.87908 
Q 462.1932 61.78068 452.1492 61.78068 
L 325.5948 61.78068 
Q 315.5508 61.78068 315.5508 67.87908 
L 315.5508 98.98092 
Q 315.5508 105.07932 325.5948 105.07932 
z
" clip-path="url(#p5157d31869)" style="fill: #ffe0b2; opacity: 0.9; stroke: #455a64; stroke-width: 0.8; stroke-linejoin: miter"/>
   </g>
   <g id="patch_35">
    <path d="M 466.2108 105.07932 
L 592.7652 105.07932 
Q 602.8092 105.07932 602.8092 98.98092 
L 602.8092 67.87908 
Q 602.8092 61.78068 592.7652 61.78068 
L 466.2108 61.78068 
Q 456.1668 61.78068 456.1668 67.87908 
L 456.1668 98.98092 
Q 456.1668 105.07932 466.2108 105.07932 
z
" clip-path="url(#p5157d31869)" style="fill: #ffe0b2; opacity: 0.9; stroke: #455a64; stroke-width: 0.8; stroke-linejoin: miter"/>
   </g>
   <g id="patch_36">
    <path d="M 606.8268 105.07932 
L 733.3812 105.07932 
Q 743.4252 105.07932 743.4252 98.98092 
L 743.4252 67.87908 
Q 743.4252 61.78068 733.3812 61.78068 
L 606.8268 61.78068 
Q 596.7828 61.78068 596.7828 67.87908 
L 596.7828 98.98092 
Q 596.7828 105.07932 606.8268 105.07932 
z
" clip-path="url(#p5157d31869)" style="fill: #ffe0b2; opacity: 0.9; stroke: #455a64; stroke-width: 0.8; stroke-linejoin: miter"/>
   </g>
   <g id="patch_37">
    <path d="M 747.4428 105.07932 
L 873.9972 105.07932 
Q 884.0412 105.07932 884.0412 98.98092 
L 884.0412 67.87908 
Q 884.0412 61.78068 873.9972 61.78068 
L 747.4428 61.78068 
Q 737.3988 61.78068 737.3988 67.87908 
L 737.3988 98.98092 
Q 737.3988 105.07932 747.4428 105.07932 
z
" clip-path="url(#p5157d31869)" style="fill: #ffe0b2; opacity: 0.9; stroke: #455a64; stroke-width: 0.8; stroke-linejoin: miter"/>
   </g>
   <g id="patch_38">
    <path d="M 54.4068 190.45692 
L 201.0492 190.45692 
Q 211.0932 190.45692 211.0932 184.35852 
L 211.0932 153.25668 
Q 211.0932 147.15828 201.0492 147.15828 
L 54.4068 147.15828 
Q 44.3628 147.15828 44.3628 153.25668 
L 44.3628 184.35852 
Q 44.3628 190.45692 54.4068 190.45692 
z
" clip-path="url(#p5157d31869)" style="fill: #c8e6c9; opacity: 0.9; stroke: #455a64; stroke-width: 0.8; stroke-linejoin: miter"/>
   </g>
   <g id="patch_39">
    <path d="M 235.1988 190.45692 
L 381.8412 190.45692 
Q 391.8852 190.45692 391.8852 184.35852 
L 391.8852 153.25668 
Q 391.8852 147.15828 381.8412 147.15828 
L 235.1988 147.15828 
Q 225.1548 147.15828 225.1548 153.25668 
L 225.1548 184.35852 
Q 225.1548 190.45692 235.1988 190.45692 
z
" clip-path="url(#p5157d31869)" style="fill: #c8e6c9; opacity: 0.9; stroke: #455a64; stroke-width: 0.8; stroke-linejoin: miter"/>
   </g>
   <g id="patch_40">
    <path d="M 415.9908 190.45692 
L 562.6332 190.45692 
Q 572.6772 190.45692 572.6772 184.35852 
L 572.6772 153.25668 
Q 572.6772 147.15828 562.6332 147.15828 
L 415.9908 147.15828 
Q 405.9468 147.15828 405.9468 153.25668 
L 405.9468 184.35852 
Q 405.9468 190.45692 415.9908 190.45692 
z
" clip-path="url(#p5157d31869)" style="fill: #c8e6c9; opacity: 0.9; stroke: #455a64; stroke-width: 0.8; stroke-linejoin: miter"/>
   </g>
   <g id="patch_41">
    <path d="M 626.9148 190.45692 
L 793.6452 190.45692 
Q 803.6892 190.45692 803.6892 184.35852 
L 803.6892 153.25668 
Q 803.6892 147.15828 793.6452 147.15828 
L 626.9148 147.15828 
Q 616.8708 147.15828 616.8708 153.25668 
L 616.8708 184.35852 
Q 616.8708 190.45692 626.9148 190.45692 
z
" clip-path="url(#p5157d31869)" style="fill: #c8e6c9; opacity: 0.9; stroke: #455a64; stroke-width: 0.8; stroke-linejoin: miter"/>
   </g>
   <g id="patch_42">
    <path d="M 124.7148 263.63772 
L 291.4452 263.63772 
Q 301.4892 263.63772 301.4892 257.53932 
L 301.4892 226.43748 
Q 301.4892 220.33908 291.4452 220.33908 
L 124.7148 220.33908 
Q 114.6708 220.33908 114.6708 226.43748 
L 114.6708 257.53932 
Q 114.6708 263.63772 124.7148 263.63772 
z
" clip-path="url(#p5157d31869)" style="fill: #eceff1; opacity: 0.9; stroke: #455a64; stroke-width: 0.8; stroke-linejoin: miter"/>
   </g>
   <g id="patch_43">
    <path d="M 365.7708 263.63772 
L 532.5012 263.63772 
Q 542.5452 263.63772 542.5452 257.53932 
L 542.5452 226.43748 
Q 542.5452 220.33908 532.5012 220.33908 
L 365.7708 220.33908 
Q 355.7268 220.33908 355.7268 226.43748 
L 355.7268 257.53932 
Q 355.7268 263.63772 365.7708 263.63772 
z
" clip-path="url(#p5157d31869)" style="fill: #ffcdd2; opacity: 0.9; stroke: #455a64; stroke-width: 0.8; stroke-linejoin: miter"/>
   </g>
   <g id="patch_44">
    <path d="M 636.9588 263.63772 
L 783.6012 263.63772 
Q 793.6452 263.63772 793.6452 257.53932 
L 793.6452 226.43748 
Q 793.6452 220.33908 783.6012 220.33908 
L 636.9588 220.33908 
Q 626.9148 220.33908 626.9148 226.43748 
L 626.9148 257.53932 
Q 626.9148 263.63772 636.9588 263.63772 
z
" clip-path="url(#p5157d31869)" style="fill: #eceff1; opacity: 0.9; stroke: #455a64; stroke-width: 0.8; stroke-linejoin: miter"/>
   </g>
   <g id="patch_45">
    <path d="M 39.3408 355.11372 
L 175.9392 355.11372 
Q 185.9832 355.11372 185.9832 349.01532 
L 185.9832 317.91348 
Q 185.9832 311.81508 175.9392 311.81508 
L 39.3408 311.81508 
Q 29.2968 311.81508 29.2968 317.91348 
L 29.2968 349.01532 
Q 29.2968 355.11372 39.3408 355.11372 
z
" clip-path="url(#p5157d31869)" style="fill: #ffcdd2; opacity: 0.9; stroke: #455a64; stroke-width: 0.8; stroke-linejoin: miter"/>
   </g>
   <g id="patch_46">
    <path d="M 179.9568 355.11372 
L 316.5552 355.11372 
Q 326.5992 355.11372 326.5992 349.01532 
L 326.5992 317.91348 
Q 326.5992 311.81508 316.5552 311.81508 
L 179.9568 311.81508 
Q 169.9128 311.81508 169.9128 317.91348 
L 169.9128 349.01532 
Q 169.9128 355.11372 179.9568 355.11372 
z
" clip-path="url(#p5157d31869)" style="fill: #ffcdd2; opacity: 0.9; stroke: #455a64; stroke-width: 0.8; stroke-linejoin: miter"/>
   </g>
   <g id="patch_47">
    <path d="M 320.5728 355.11372 
L 457.1712 355.11372 
Q 467.2152 355.11372 467.2152 349.01532 
L 467.2152 317.91348 
Q 467.2152 311.81508 457.1712 311.81508 
L 320.5728 311.81508 
Q 310.5288 311.81508 310.5288 317.91348 
L 310.5288 349.01532 
Q 310.5288 355.11372 320.5728 355.11372 
z
" clip-path="url(#p5157d31869)" style="fill: #ffcdd2; opacity: 0.9; stroke: #455a64; stroke-width: 0.8; stroke-linejoin: miter"/>
   </g>
   <g id="patch_48">
    <path d="M 400.9248 355.11372 
L 537.5232 355.11372 
Q 547.5672 355.11372 547.5672 349.01532 
L 547.5672 317.91348 
Q 547.5672 311.81508 537.5232 311.81508 
L 400.9248 311.81508 
Q 390.8808 311.81508 390.8808 317.91348 
L 390.8808 349.01532 
Q 390.8808 355.11372 400.9248 355.11372 
z
" clip-path="url(#p5157d31869)" style="fill: #ffcdd2; opacity: 0.9; stroke: #455a64; stroke-width: 0.8; stroke-linejoin: miter"/>
   </g>
   <g id="patch_49">
    <path d="M 526.4748 329.19552 
L 653.0292 329.19552 
Q 663.0732 329.19552 663.0732 323.09712 
L 663.0732 295.04448 
Q 663.0732 288.94608 653.0292 288.94608 
L 526.4748 288.94608 
Q 516.4308 288.94608 516.4308 295.04448 
L 516.4308 323.09712 
Q 516.4308 329.19552 526.4748 329.19552 
z
" clip-path="url(#p5157d31869)" style="fill: #bbdefb; opacity: 0.9; stroke: #455a64; stroke-width: 0.8; stroke-linejoin: miter"/>
   </g>
   <g id="patch_50">
    <path d="M 647.0028 329.19552 
L 773.5572 329.19552 
Q 783.6012 329.19552 783.6012 323.09712 
L 783.6012 295.04448 
Q 783.6012 288.94608 773.5572 288.94608 
L 647.0028 288.94608 
Q 636.9588 288.94608 636.9588 295.04448 
L 636.9588 323.09712 
Q 636.9588 329.19552 647.0028 329.19552 
z
" clip-path="url(#p5157d31869)" style="fill: #bbdefb; opacity: 0.9; stroke: #455a64; stroke-width: 0.8; stroke-linejoin: miter"/>
   </g>
   <g id="patch_51">
    <path d="M 767.5308 329.19552 
L 894.0852 329.19552 
Q 904.1292 329.19552 904.1292 323.09712 
L 904.1292 295.04448 
Q 904.1292 288.94608 894.0852 288.94608 
L 767.5308 288.94608 
Q 757.4868 288.94608 757.4868 295.04448 
L 757.4868 323.09712 
Q 757.4868 329.19552 767.5308 329.19552 
z
" clip-path="url(#p5157d31869)" style="fill: #bbdefb; opacity: 0.9; stroke: #455a64; stroke-width: 0.8; stroke-linejoin: miter"/>
   </g>
   <g id="patch_52">
    <path d="M 888.0588 329.19552 
L 1014.6132 329.19552 
Q 1024.6572 329.19552 1024.6572 323.09712 
L 1024.6572 295.04448 
Q 1024.6572 288.94608 1014.6132 288.94608 
L 888.0588 288.94608 
Q 878.0148 288.94608 878.0148 295.04448 
L 878.0148 323.09712 
Q 878.0148 329.19552 888.0588 329.19552 
z
" clip-path="url(#p5157d31869)" style="fill: #bbdefb; opacity: 0.9; stroke: #455a64; stroke-width: 0.8; stroke-linejoin: miter"/>
   </g>
   <g id="patch_53">
    <path d="M 586.7388 390.17952 
L 713.2932 390.17952 
Q 723.3372 390.17952 723.3372 384.08112 
L 723.3372 356.02848 
Q 723.3372 349.93008 713.2932 349.93008 
L 586.7388 349.93008 
Q 576.6948 349.93008 576.6948 356.02848 
L 576.6948 384.08112 
Q 576.6948 390.17952 586.7388 390.17952 
z
" clip-path="url(#p5157d31869)" style="fill: #bbdefb; opacity: 0.9; stroke: #455a64; stroke-width: 0.8; stroke-linejoin: miter"/>
   </g>
   <g id="patch_54">
    <path d="M 692.2008 390.17952 
L 889.0632 390.17952 
Q 899.1072 390.17952 899.1072 384.08112 
L 899.1072 356.02848 
Q 899.1072 349.93008 889.0632 349.93008 
L 692.2008 349.93008 
Q 682.1568 349.93008 682.1568 356.02848 
L 682.1568 384.08112 
Q 682.1568 390.17952 692.2008 390.17952 
z
" clip-path="url(#p5157d31869)" style="fill: #bbdefb; opacity: 0.9; stroke: #455a64; stroke-width: 0.8; stroke-linejoin: miter"/>
   </g>
   <g id="patch_55">
    <path d="M 867.9708 390.17952 
L 994.5252 390.17952 
Q 1004.5692 390.17952 1004.5692 384.08112 
L 1004.5692 356.02848 
Q 1004.5692 349.93008 994.5252 349.93008 
L 867.9708 349.93008 
Q 857.9268 349.93008 857.9268 356.02848 
L 857.9268 384.08112 
Q 857.9268 390.17952 867.9708 390.17952 
z
" clip-path="url(#p5157d31869)" style="fill: #bbdefb; opacity: 0.9; stroke: #455a64; stroke-width: 0.8; stroke-linejoin: miter"/>
   </g>
   <g id="patch_56">
    <path d="M 54.4068 507.57372 
L 201.0492 507.57372 
Q 211.0932 507.57372 211.0932 501.47532 
L 211.0932 470.37348 
Q 211.0932 464.27508 201.0492 464.27508 
L 54.4068 464.27508 
Q 44.3628 464.27508 44.3628 470.37348 
L 44.3628 501.47532 
Q 44.3628 507.57372 54.4068 507.57372 
z
" clip-path="url(#p5157d31869)" style="fill: #b3e5fc; opacity: 0.9; stroke: #455a64; stroke-width: 0.8; stroke-linejoin: miter"/>
   </g>
   <g id="patch_57">
    <path d="M 275.3748 507.57372 
L 422.0172 507.57372 
Q 432.0612 507.57372 432.0612 501.47532 
L 432.0612 470.37348 
Q 432.0612 464.27508 422.0172 464.27508 
L 275.3748 464.27508 
Q 265.3308 464.27508 265.3308 470.37348 
L 265.3308 501.47532 
Q 265.3308 507.57372 275.3748 507.57372 
z
" clip-path="url(#p5157d31869)" style="fill: #b3e5fc; opacity: 0.9; stroke: #455a64; stroke-width: 0.8; stroke-linejoin: miter"/>
   </g>
   <g id="patch_58">
    <path d="M 496.3428 507.57372 
L 642.9852 507.57372 
Q 653.0292 507.57372 653.0292 501.47532 
L 653.0292 470.37348 
Q 653.0292 464.27508 642.9852 464.27508 
L 496.3428 464.27508 
Q 486.2988 464.27508 486.2988 470.37348 
L 486.2988 501.47532 
Q 486.2988 507.57372 496.3428 507.57372 
z
" clip-path="url(#p5157d31869)" style="fill: #b3e5fc; opacity: 0.9; stroke: #455a64; stroke-width: 0.8; stroke-linejoin: miter"/>
   </g>
   <g id="patch_59">
    <path d="M 717.3108 507.57372 
L 863.9532 507.57372 
Q 873.9972 507.57372 873.9972 501.47532 
L 873.9972 470.37348 
Q 873.9972 464.27508 863.9532 464.27508 
L 717.3108 464.27508 
Q 707.2668 464.27508 707.2668 470.37348 
L 707.2668 501.47532 
Q 707.2668 507.57372 717.3108 507.57372 
z
" clip-path="url(#p5157d31869)" style="fill: #b3e5fc; opacity: 0.9; stroke: #455a64; stroke-width: 0.8; stroke-linejoin: miter"/>
   </g>
   <g id="text_8">
    <g id="patch_60">
     <path d="M 37.332 601.3698 
L 414.107391 601.3698 
Q 416.732391 601.3698 416.732391 598.7448 
L 416.732391 583.087847 
Q 416.732391 580.462847 414.107391 580.462847 
L 37.332 580.462847 
Q 34.707 580.462847 34.707 583.087847 
L 34.707 598.7448 
Q 34.707 601.3698 37.332 601.3698 
z
" style="fill: #ffebee; opacity: 0.95; stroke: #90a4ae; stroke-linejoin: miter"/>
    </g>
    <text style="font-size: 7.5px; font-family: 'DejaVu Sans', 'Bitstream Vera Sans', 'Computer Modern Sans Serif', 'Lucida Grande', 'Verdana', 'Geneva', 'Lucid', 'Arial', 'Helvetica', 'Avant Garde', sans-serif" transform="translate(37.332 588.786675)">Threats mitigated:</text>
    <text style="font-size: 7.5px; font-family: 'DejaVu Sans', 'Bitstream Vera Sans', 'Computer Modern Sans Serif', 'Lucida Grande', 'Verdana', 'Geneva', 'Lucid', 'Arial', 'Helvetica', 'Avant Garde', sans-serif" transform="translate(37.332 597.185034)">model tampering; unauthorized replacement; extraction; unauthorized inference; compromised REE</text>
   </g>
   <g id="text_9">
    <g id="patch_61">
     <path d="M 278.388 601.3698 
L 450.005578 601.3698 
Q 452.630578 601.3698 452.630578 598.7448 
L 452.630578 583.087847 
Q 452.630578 580.462847 450.005578 580.462847 
L 278.388 580.462847 
Q 275.763 580.462847 275.763 583.087847 
L 275.763 598.7448 
Q 275.763 601.3698 278.388 601.3698 
z
" style="fill: #e3f2fd; opacity: 0.95; stroke: #90a4ae; stroke-linejoin: miter"/>
    </g>
    <text style="font-size: 7.5px; font-family: 'DejaVu Sans', 'Bitstream Vera Sans', 'Computer Modern Sans Serif', 'Lucida Grande', 'Verdana', 'Geneva', 'Lucid', 'Arial', 'Helvetica', 'Avant Garde', sans-serif" transform="translate(278.388 588.786675)">TEE protects:</text>
    <text style="font-size: 7.5px; font-family: 'DejaVu Sans', 'Bitstream Vera Sans', 'Computer Modern Sans Serif', 'Lucida Grande', 'Verdana', 'Geneva', 'Lucid', 'Arial', 'Helvetica', 'Avant Garde', sans-serif" transform="translate(278.388 597.185034)">model storage, inference, keys, decision logic</text>
   </g>
   <g id="text_10">
    <g id="patch_62">
     <path d="M 519.444 601.3698 
L 713.079938 601.3698 
Q 715.704938 601.3698 715.704938 598.7448 
L 715.704938 583.087847 
Q 715.704938 580.462847 713.079938 580.462847 
L 519.444 580.462847 
Q 516.819 580.462847 516.819 583.087847 
L 516.819 598.7448 
Q 516.819 601.3698 519.444 601.3698 
z
" style="fill: #fff8e1; opacity: 0.95; stroke: #90a4ae; stroke-linejoin: miter"/>
    </g>
    <text style="font-size: 7.5px; font-family: 'DejaVu Sans', 'Bitstream Vera Sans', 'Computer Modern Sans Serif', 'Lucida Grande', 'Verdana', 'Geneva', 'Lucid', 'Arial', 'Helvetica', 'Avant Garde', sans-serif" transform="translate(519.444 588.786675)">QAI role:</text>
    <text style="font-size: 7.5px; font-family: 'DejaVu Sans', 'Bitstream Vera Sans', 'Computer Modern Sans Serif', 'Lucida Grande', 'Verdana', 'Geneva', 'Lucid', 'Arial', 'Helvetica', 'Avant Garde', sans-serif" transform="translate(519.444 597.185034)">anomaly engine inside TEE; not a security primitive</text>
   </g>
   <g id="text_11">
    <g id="patch_63">
     <path d="M 740.412 601.3698 
L 1079.388563 601.3698 
Q 1082.013563 601.3698 1082.013563 598.7448 
L 1082.013563 583.087847 
Q 1082.013563 580.462847 1079.388563 580.462847 
L 740.412 580.462847 
Q 737.787 580.462847 737.787 583.087847 
L 737.787 598.7448 
Q 737.787 601.3698 740.412 601.3698 
z
" style="fill: #e8f5e9; opacity: 0.95; stroke: #90a4ae; stroke-linejoin: miter"/>
    </g>
    <text style="font-size: 7.5px; font-family: 'DejaVu Sans', 'Bitstream Vera Sans', 'Computer Modern Sans Serif', 'Lucida Grande', 'Verdana', 'Geneva', 'Lucid', 'Arial', 'Helvetica', 'Avant Garde', sans-serif" transform="translate(740.412 588.786675)">RQ:</text>
    <text style="font-size: 7.5px; font-family: 'DejaVu Sans', 'Bitstream Vera Sans', 'Computer Modern Sans Serif', 'Lucida Grande', 'Verdana', 'Geneva', 'Lucid', 'Arial', 'Helvetica', 'Avant Garde', sans-serif" transform="translate(740.412 597.185034)">Hybrid Q-C vs. TinyML for zero-day / unseen attacks under deployability &amp; TEE constraints</text>
   </g>
   <g id="text_12">
    <text style="font-size: 7.5px; font-family: 'DejaVu Sans', 'Bitstream Vera Sans', 'Computer Modern Sans Serif', 'Lucida Grande', 'Verdana', 'Geneva', 'Lucid', 'Arial', 'Helvetica', 'Avant Garde', sans-serif; text-anchor: end; fill: #455a64" x="981.468" y="122.670028" transform="rotate(-0 981.468 122.670028)">—— data   —— trusted   - - deploy</text>
   </g>
   <g id="text_13">
    <text style="font-size: 7.5px; font-family: 'DejaVu Sans', 'Bitstream Vera Sans', 'Computer Modern Sans Serif', 'Lucida Grande', 'Verdana', 'Geneva', 'Lucid', 'Arial', 'Helvetica', 'Avant Garde', sans-serif" transform="translate(78.71168 81.300352)">Public Datasets</text>
    <text style="font-size: 7.5px; font-family: 'DejaVu Sans', 'Bitstream Vera Sans', 'Computer Modern Sans Serif', 'Lucida Grande', 'Verdana', 'Geneva', 'Lucid', 'Arial', 'Helvetica', 'Avant Garde', sans-serif" transform="translate(65.758359 89.698711)">NSL-KDD, Edge-IIoTset</text>
   </g>
   <g id="text_14">
    <text style="font-size: 7.5px; font-family: 'DejaVu Sans', 'Bitstream Vera Sans', 'Computer Modern Sans Serif', 'Lucida Grande', 'Verdana', 'Geneva', 'Lucid', 'Arial', 'Helvetica', 'Avant Garde', sans-serif" transform="translate(233.932172 81.300352)">PyTorch</text>
    <text style="font-size: 7.5px; font-family: 'DejaVu Sans', 'Bitstream Vera Sans', 'Computer Modern Sans Serif', 'Lucida Grande', 'Verdana', 'Geneva', 'Lucid', 'Arial', 'Helvetica', 'Avant Garde', sans-serif" transform="translate(215.604633 89.698711)">classical baseline</text>
   </g>
   <g id="text_15">
    <text style="font-size: 7.5px; font-family: 'DejaVu Sans', 'Bitstream Vera Sans', 'Computer Modern Sans Serif', 'Lucida Grande', 'Verdana', 'Geneva', 'Lucid', 'Arial', 'Helvetica', 'Avant Garde', sans-serif" transform="translate(378.241336 81.300352)">Qiskit</text>
    <text style="font-size: 7.5px; font-family: 'DejaVu Sans', 'Bitstream Vera Sans', 'Computer Modern Sans Serif', 'Lucida Grande', 'Verdana', 'Geneva', 'Lucid', 'Arial', 'Helvetica', 'Avant Garde', sans-serif" transform="translate(359.272195 89.698711)">sim / cloud QPU</text>
   </g>
   <g id="text_16">
    <text style="font-size: 7.5px; font-family: 'DejaVu Sans', 'Bitstream Vera Sans', 'Computer Modern Sans Serif', 'Lucida Grande', 'Verdana', 'Geneva', 'Lucid', 'Arial', 'Helvetica', 'Avant Garde', sans-serif" transform="translate(509.011242 81.300352)">PennyLane</text>
    <text style="font-size: 7.5px; font-family: 'DejaVu Sans', 'Bitstream Vera Sans', 'Computer Modern Sans Serif', 'Lucida Grande', 'Verdana', 'Geneva', 'Lucid', 'Arial', 'Helvetica', 'Avant Garde', sans-serif" transform="translate(506.160656 89.698711)">VQC / kernel</text>
   </g>
   <g id="text_17">
    <text style="font-size: 7.5px; font-family: 'DejaVu Sans', 'Bitstream Vera Sans', 'Computer Modern Sans Serif', 'Lucida Grande', 'Verdana', 'Geneva', 'Lucid', 'Arial', 'Helvetica', 'Avant Garde', sans-serif; text-anchor: middle" x="670.104" y="85.499531" transform="rotate(-0 670.104 85.499531)">Compress &amp; Export</text>
   </g>
   <g id="text_18">
    <text style="font-size: 7.5px; font-family: 'DejaVu Sans', 'Bitstream Vera Sans', 'Computer Modern Sans Serif', 'Lucida Grande', 'Verdana', 'Geneva', 'Lucid', 'Arial', 'Helvetica', 'Avant Garde', sans-serif; text-anchor: middle" x="810.72" y="85.499531" transform="rotate(-0 810.72 85.499531)">Sign &amp; Encrypt</text>
   </g>
   <g id="text_19">
    <text style="font-size: 7.5px; font-family: 'DejaVu Sans', 'Bitstream Vera Sans', 'Computer Modern Sans Serif', 'Lucida Grande', 'Verdana', 'Geneva', 'Lucid', 'Arial', 'Helvetica', 'Avant Garde', sans-serif; text-anchor: middle" x="127.728" y="170.877131" transform="rotate(-0 127.728 170.877131)">Sensors</text>
   </g>
   <g id="text_20">
    <text style="font-size: 7.5px; font-family: 'DejaVu Sans', 'Bitstream Vera Sans', 'Computer Modern Sans Serif', 'Lucida Grande', 'Verdana', 'Geneva', 'Lucid', 'Arial', 'Helvetica', 'Avant Garde', sans-serif; text-anchor: middle" x="308.52" y="170.877131" transform="rotate(-0 308.52 170.877131)">Actuators</text>
   </g>
   <g id="text_21">
    <text style="font-size: 7.5px; font-family: 'DejaVu Sans', 'Bitstream Vera Sans', 'Computer Modern Sans Serif', 'Lucida Grande', 'Verdana', 'Geneva', 'Lucid', 'Arial', 'Helvetica', 'Avant Garde', sans-serif" transform="translate(466.867078 166.677952)">ESP32-class</text>
    <text style="font-size: 7.5px; font-family: 'DejaVu Sans', 'Bitstream Vera Sans', 'Computer Modern Sans Serif', 'Lucida Grande', 'Verdana', 'Geneva', 'Lucid', 'Arial', 'Helvetica', 'Avant Garde', sans-serif" transform="translate(477.999305 175.076311)">nodes</text>
   </g>
   <g id="text_22">
    <text style="font-size: 7.5px; font-family: 'DejaVu Sans', 'Bitstream Vera Sans', 'Computer Modern Sans Serif', 'Lucida Grande', 'Verdana', 'Geneva', 'Lucid', 'Arial', 'Helvetica', 'Avant Garde', sans-serif" transform="translate(686.831367 166.677952)">IoT Gateway</text>
    <text style="font-size: 7.5px; font-family: 'DejaVu Sans', 'Bitstream Vera Sans', 'Computer Modern Sans Serif', 'Lucida Grande', 'Verdana', 'Geneva', 'Lucid', 'Arial', 'Helvetica', 'Avant Garde', sans-serif" transform="translate(679.537617 175.076311)">Radio / Field bus</text>
   </g>
   <g id="text_23">
    <text style="font-size: 7.5px; font-family: 'DejaVu Sans', 'Bitstream Vera Sans', 'Computer Modern Sans Serif', 'Lucida Grande', 'Verdana', 'Geneva', 'Lucid', 'Arial', 'Helvetica', 'Avant Garde', sans-serif" transform="translate(179.385469 239.858752)">Data Collection</text>
    <text style="font-size: 7.5px; font-family: 'DejaVu Sans', 'Bitstream Vera Sans', 'Computer Modern Sans Serif', 'Lucida Grande', 'Verdana', 'Geneva', 'Lucid', 'Arial', 'Helvetica', 'Avant Garde', sans-serif" transform="translate(170.055 248.257111)">ingest, buffer, parse</text>
   </g>
   <g id="text_24">
    <text style="font-size: 7.5px; font-family: 'DejaVu Sans', 'Bitstream Vera Sans', 'Computer Modern Sans Serif', 'Lucida Grande', 'Verdana', 'Geneva', 'Lucid', 'Arial', 'Helvetica', 'Avant Garde', sans-serif" transform="translate(414.63307 239.858752)">Feature Extraction</text>
    <text style="font-size: 7.5px; font-family: 'DejaVu Sans', 'Bitstream Vera Sans', 'Computer Modern Sans Serif', 'Lucida Grande', 'Verdana', 'Geneva', 'Lucid', 'Arial', 'Helvetica', 'Avant Garde', sans-serif" transform="translate(405.210023 248.257111)">REE-side preprocessing</text>
   </g>
   <g id="text_25">
    <text style="font-size: 7.5px; font-family: 'DejaVu Sans', 'Bitstream Vera Sans', 'Computer Modern Sans Serif', 'Lucida Grande', 'Verdana', 'Geneva', 'Lucid', 'Arial', 'Helvetica', 'Avant Garde', sans-serif" transform="translate(688.92082 239.858752)">Benchmark</text>
    <text style="font-size: 7.5px; font-family: 'DejaVu Sans', 'Bitstream Vera Sans', 'Computer Modern Sans Serif', 'Lucida Grande', 'Verdana', 'Geneva', 'Lucid', 'Arial', 'Helvetica', 'Avant Garde', sans-serif" transform="translate(695.094844 248.257111)">Harness</text>
   </g>
   <g id="text_26">
    <text style="font-size: 7.5px; font-family: 'DejaVu Sans', 'Bitstream Vera Sans', 'Computer Modern Sans Serif', 'Lucida Grande', 'Verdana', 'Geneva', 'Lucid', 'Arial', 'Helvetica', 'Avant Garde', sans-serif; text-anchor: middle" x="107.64" y="335.533931" transform="rotate(-0 107.64 335.533931)">Linux Kernel</text>
   </g>
   <g id="text_27">
    <text style="font-size: 7.5px; font-family: 'DejaVu Sans', 'Bitstream Vera Sans', 'Computer Modern Sans Serif', 'Lucida Grande', 'Verdana', 'Geneva', 'Lucid', 'Arial', 'Helvetica', 'Avant Garde', sans-serif" transform="translate(232.598578 331.334752)">Network</text>
    <text style="font-size: 7.5px; font-family: 'DejaVu Sans', 'Bitstream Vera Sans', 'Computer Modern Sans Serif', 'Lucida Grande', 'Verdana', 'Geneva', 'Lucid', 'Arial', 'Helvetica', 'Avant Garde', sans-serif" transform="translate(237.873773 339.733111)">Stack</text>
   </g>
   <g id="text_28">
    <text style="font-size: 7.5px; font-family: 'DejaVu Sans', 'Bitstream Vera Sans', 'Computer Modern Sans Serif', 'Lucida Grande', 'Verdana', 'Geneva', 'Lucid', 'Arial', 'Helvetica', 'Avant Garde', sans-serif" transform="translate(364.168875 331.334752)">Management</text>
    <text style="font-size: 7.5px; font-family: 'DejaVu Sans', 'Bitstream Vera Sans', 'Computer Modern Sans Serif', 'Lucida Grande', 'Verdana', 'Geneva', 'Lucid', 'Arial', 'Helvetica', 'Avant Garde', sans-serif" transform="translate(377.772 339.733111)">Agent</text>
   </g>
   <g id="text_29">
    <text style="font-size: 7.5px; font-family: 'DejaVu Sans', 'Bitstream Vera Sans', 'Computer Modern Sans Serif', 'Lucida Grande', 'Verdana', 'Geneva', 'Lucid', 'Arial', 'Helvetica', 'Avant Garde', sans-serif" transform="translate(450.146461 331.334752)">TEE Client</text>
    <text style="font-size: 7.5px; font-family: 'DejaVu Sans', 'Bitstream Vera Sans', 'Computer Modern Sans Serif', 'Lucida Grande', 'Verdana', 'Geneva', 'Lucid', 'Arial', 'Helvetica', 'Avant Garde', sans-serif" transform="translate(451.409742 339.733111)">API / SMC</text>
   </g>
   <g id="text_30">
    <text style="font-size: 7.5px; font-family: 'DejaVu Sans', 'Bitstream Vera Sans', 'Computer Modern Sans Serif', 'Lucida Grande', 'Verdana', 'Geneva', 'Lucid', 'Arial', 'Helvetica', 'Avant Garde', sans-serif" transform="translate(568.870359 306.941152)">Secure Key</text>
    <text style="font-size: 7.5px; font-family: 'DejaVu Sans', 'Bitstream Vera Sans', 'Computer Modern Sans Serif', 'Lucida Grande', 'Verdana', 'Geneva', 'Lucid', 'Arial', 'Helvetica', 'Avant Garde', sans-serif" transform="translate(575.078953 315.339511)">Storage</text>
   </g>
   <g id="text_31">
    <text style="font-size: 7.5px; font-family: 'DejaVu Sans', 'Bitstream Vera Sans', 'Computer Modern Sans Serif', 'Lucida Grande', 'Verdana', 'Geneva', 'Lucid', 'Arial', 'Helvetica', 'Avant Garde', sans-serif" transform="translate(691.649531 306.941152)">Trusted AI</text>
    <text style="font-size: 7.5px; font-family: 'DejaVu Sans', 'Bitstream Vera Sans', 'Computer Modern Sans Serif', 'Lucida Grande', 'Verdana', 'Geneva', 'Lucid', 'Arial', 'Helvetica', 'Avant Garde', sans-serif" transform="translate(683.155195 315.339511)">Model Storage</text>
   </g>
   <g id="text_32">
    <text style="font-size: 7.5px; font-family: 'DejaVu Sans', 'Bitstream Vera Sans', 'Computer Modern Sans Serif', 'Lucida Grande', 'Verdana', 'Geneva', 'Lucid', 'Arial', 'Helvetica', 'Avant Garde', sans-serif" transform="translate(817.040813 306.941152)">Trusted</text>
    <text style="font-size: 7.5px; font-family: 'DejaVu Sans', 'Bitstream Vera Sans', 'Computer Modern Sans Serif', 'Lucida Grande', 'Verdana', 'Geneva', 'Lucid', 'Arial', 'Helvetica', 'Avant Garde', sans-serif" transform="translate(807.430266 315.339511)">Inference TA</text>
   </g>
   <g id="text_33">
    <text style="font-size: 7.5px; font-family: 'DejaVu Sans', 'Bitstream Vera Sans', 'Computer Modern Sans Serif', 'Lucida Grande', 'Verdana', 'Geneva', 'Lucid', 'Arial', 'Helvetica', 'Avant Garde', sans-serif" transform="translate(930.733266 306.941152)">Hybrid Q-C</text>
    <text style="font-size: 7.5px; font-family: 'DejaVu Sans', 'Bitstream Vera Sans', 'Computer Modern Sans Serif', 'Lucida Grande', 'Verdana', 'Geneva', 'Lucid', 'Arial', 'Helvetica', 'Avant Garde', sans-serif" transform="translate(919.074281 315.339511)">Detection Engine</text>
   </g>
   <g id="text_34">
    <text style="font-size: 7.5px; font-family: 'DejaVu Sans', 'Bitstream Vera Sans', 'Computer Modern Sans Serif', 'Lucida Grande', 'Verdana', 'Geneva', 'Lucid', 'Arial', 'Helvetica', 'Avant Garde', sans-serif" transform="translate(635.546859 367.925152)">Remote</text>
    <text style="font-size: 7.5px; font-family: 'DejaVu Sans', 'Bitstream Vera Sans', 'Computer Modern Sans Serif', 'Lucida Grande', 'Verdana', 'Geneva', 'Lucid', 'Arial', 'Helvetica', 'Avant Garde', sans-serif" transform="translate(629.364047 376.323511)">Attestation</text>
   </g>
   <g id="text_35">
    <text style="font-size: 7.5px; font-family: 'DejaVu Sans', 'Bitstream Vera Sans', 'Computer Modern Sans Serif', 'Lucida Grande', 'Verdana', 'Geneva', 'Lucid', 'Arial', 'Helvetica', 'Avant Garde', sans-serif; text-anchor: middle" x="790.632" y="372.124331" transform="rotate(-0 790.632 372.124331)">Security Decision Logic</text>
   </g>
   <g id="text_36">
    <text style="font-size: 7.5px; font-family: 'DejaVu Sans', 'Bitstream Vera Sans', 'Computer Modern Sans Serif', 'Lucida Grande', 'Verdana', 'Geneva', 'Lucid', 'Arial', 'Helvetica', 'Avant Garde', sans-serif" transform="translate(902.629055 367.925152)">ARM Gateway /</text>
    <text style="font-size: 7.5px; font-family: 'DejaVu Sans', 'Bitstream Vera Sans', 'Computer Modern Sans Serif', 'Lucida Grande', 'Verdana', 'Geneva', 'Lucid', 'Arial', 'Helvetica', 'Avant Garde', sans-serif" transform="translate(896.914992 376.323511)">FPGA SoC runtime</text>
   </g>
   <g id="text_37">
    <text style="font-size: 7.5px; font-family: 'DejaVu Sans', 'Bitstream Vera Sans', 'Computer Modern Sans Serif', 'Lucida Grande', 'Verdana', 'Geneva', 'Lucid', 'Arial', 'Helvetica', 'Avant Garde', sans-serif" transform="translate(107.076047 483.794752)">Attestation</text>
    <text style="font-size: 7.5px; font-family: 'DejaVu Sans', 'Bitstream Vera Sans', 'Computer Modern Sans Serif', 'Lucida Grande', 'Verdana', 'Geneva', 'Lucid', 'Arial', 'Helvetica', 'Avant Garde', sans-serif" transform="translate(114.351633 492.193111)">Verifier</text>
   </g>
   <g id="text_38">
    <text style="font-size: 7.5px; font-family: 'DejaVu Sans', 'Bitstream Vera Sans', 'Computer Modern Sans Serif', 'Lucida Grande', 'Verdana', 'Geneva', 'Lucid', 'Arial', 'Helvetica', 'Avant Garde', sans-serif" transform="translate(339.412406 483.794752)">Fleet</text>
    <text style="font-size: 7.5px; font-family: 'DejaVu Sans', 'Bitstream Vera Sans', 'Computer Modern Sans Serif', 'Lucida Grande', 'Verdana', 'Geneva', 'Lucid', 'Arial', 'Helvetica', 'Avant Garde', sans-serif" transform="translate(323.992875 492.193111)">Management</text>
   </g>
   <g id="text_39">
    <text style="font-size: 7.5px; font-family: 'DejaVu Sans', 'Bitstream Vera Sans', 'Computer Modern Sans Serif', 'Lucida Grande', 'Verdana', 'Geneva', 'Lucid', 'Arial', 'Helvetica', 'Avant Garde', sans-serif" transform="translate(554.264391 483.794752)">Security</text>
    <text style="font-size: 7.5px; font-family: 'DejaVu Sans', 'Bitstream Vera Sans', 'Computer Modern Sans Serif', 'Lucida Grande', 'Verdana', 'Geneva', 'Lucid', 'Arial', 'Helvetica', 'Avant Garde', sans-serif" transform="translate(558.879234 492.193111)">Policy</text>
   </g>
   <g id="text_40">
    <text style="font-size: 7.5px; font-family: 'DejaVu Sans', 'Bitstream Vera Sans', 'Computer Modern Sans Serif', 'Lucida Grande', 'Verdana', 'Geneva', 'Lucid', 'Arial', 'Helvetica', 'Avant Garde', sans-serif" transform="translate(770.578289 483.794752)">Monitoring</text>
    <text style="font-size: 7.5px; font-family: 'DejaVu Sans', 'Bitstream Vera Sans', 'Computer Modern Sans Serif', 'Lucida Grande', 'Verdana', 'Geneva', 'Lucid', 'Arial', 'Helvetica', 'Avant Garde', sans-serif" transform="translate(769.487273 492.193111)">&amp; Analytics</text>
   </g>
   <g id="text_41">
    <text style="font-size: 7px; font-family: 'DejaVu Sans', 'Bitstream Vera Sans', 'Computer Modern Sans Serif', 'Lucida Grande', 'Verdana', 'Geneva', 'Lucid', 'Arial', 'Helvetica', 'Avant Garde', sans-serif; text-anchor: middle; fill: #37474f" x="328.608" y="233.214539" transform="rotate(-0 328.608 233.214539)">streams</text>
   </g>
   <g id="text_42">
    <text style="font-size: 7px; font-family: 'DejaVu Sans', 'Bitstream Vera Sans', 'Computer Modern Sans Serif', 'Lucida Grande', 'Verdana', 'Geneva', 'Lucid', 'Arial', 'Helvetica', 'Avant Garde', sans-serif; text-anchor: middle; fill: #37474f" x="639.972" y="257.608139" transform="rotate(-0 639.972 257.608139)">features</text>
   </g>
   <g id="text_43">
    <text style="font-size: 7px; font-family: 'DejaVu Sans', 'Bitstream Vera Sans', 'Computer Modern Sans Serif', 'Lucida Grande', 'Verdana', 'Geneva', 'Lucid', 'Arial', 'Helvetica', 'Avant Garde', sans-serif; text-anchor: middle; fill: #1565c0" x="650.016" y="312.493739" transform="rotate(-0 650.016 312.493739)">invoke TA</text>
   </g>
   <g id="text_44">
    <text style="font-size: 7px; font-family: 'DejaVu Sans', 'Bitstream Vera Sans', 'Computer Modern Sans Serif', 'Lucida Grande', 'Verdana', 'Geneva', 'Lucid', 'Arial', 'Helvetica', 'Avant Garde', sans-serif; text-anchor: middle; fill: #1565c0" x="459.18" y="399.395939" transform="rotate(-0 459.18 399.395939)">attestation quote</text>
   </g>
   <g id="text_45">
    <text style="font-size: 7px; font-family: 'DejaVu Sans', 'Bitstream Vera Sans', 'Computer Modern Sans Serif', 'Lucida Grande', 'Verdana', 'Geneva', 'Lucid', 'Arial', 'Helvetica', 'Avant Garde', sans-serif; text-anchor: middle; fill: #37474f" x="790.632" y="399.395939" transform="rotate(-0 790.632 399.395939)">alerts</text>
   </g>
   <g id="text_46">
    <text style="font-size: 7px; font-family: 'DejaVu Sans', 'Bitstream Vera Sans', 'Computer Modern Sans Serif', 'Lucida Grande', 'Verdana', 'Geneva', 'Lucid', 'Arial', 'Helvetica', 'Avant Garde', sans-serif; text-anchor: middle; fill: #e65100" x="760.5" y="178.328939" transform="rotate(-0 760.5 178.328939)">secure model deploy</text>
   </g>
  </g>
 </g>
 <defs>
  <clipPath id="p5157d31869">
   <rect x="7.2" y="7.2" width="1004.4" height="609.84"/>
  </clipPath>
 </defs>
</svg>
